<mxfile host="app.diagrams.net" modified="2024-02-09T21:12:38.271Z" agent="Mozilla/5.0 (Macintosh; Intel Mac OS X 10_15_7) AppleWebKit/537.36 (KHTML, like Gecko) Chrome/121.0.0.0 Safari/537.36" version="23.1.2" etag="FML6pO0L3N14H9RHtvDy" type="github">
  <diagram name="Page-1" id="RJ_bw897wsE4sOikP3G_">
    <mxGraphModel>
      <root>
        <mxCell id="0" />
        <mxCell id="1" parent="0" />
      </root>
    </mxGraphModel>
  </diagram>
</mxfile>
